<svg xmlns="http://www.w3.org/2000/svg" viewBox="0 0 100 100">
  <rect width="100" height="100" rx="20" fill="#07102E"/>
  <g transform="translate(10, 24) scale(0.25) translate(-66, -127)" fill="#F5C518">
    <path d="M211.6 213.6H165l-23.3 40.3 23.3 40.3h46.6l23.2-40.3zM136.1 170.3H89.5l-23.3 40.3 23.3 40.3h46.6l23.2-40.3zM211.6 127H165l-23.3 40.3 23.3 40.3h46.6l23.2-40.3zM362.5 213.6H316l-23.3 40.3 23.3 40.3h46.5l23.3-40.3zM287 170.3h-46.5l-23.3 40.3 23.3 40.3H287l23.3-40.3zM362.5 127H316l-23.3 40.3 23.3 40.3h46.5l23.3-40.3zM287 256.9h-46.5l-23.3 40.3 23.3 40.3H287l23.3-40.3z"/>
  </g>
</svg>
